<svg width="26" height="14" viewBox="0 0 26 14" fill="none" xmlns="http://www.w3.org/2000/svg">
<path id="XMLID_546_" d="M26 7C26 7.53103 25.5737 7.96552 25.0526 7.96552H3.22105L7.50789 12.3586C7.88684 12.7448 7.88684 13.3483 7.50789 13.7345C7.3421 13.9034 7.10526 14 6.84474 14C6.60789 14 6.34737 13.9034 6.18158 13.7103L0.284211 7.67586C-0.0947368 7.28965 -0.0947368 6.68621 0.284211 6.32414L6.18158 0.289655C6.56053 -0.0965517 7.15263 -0.0965517 7.53158 0.289655C7.91053 0.675862 7.91053 1.27931 7.53158 1.66552L3.22105 6.03448H25.0526C25.5737 6.03448 26 6.46897 26 7Z" fill="#151717"/>
</svg>
