<svg width="26" height="14" viewBox="0 0 26 14" fill="none" xmlns="http://www.w3.org/2000/svg">
<path id="XMLID_512_" d="M25.7158 7.68675L19.8184 13.7108C19.6289 13.9036 19.3921 14 19.1553 14C18.9184 14 18.6816 13.9036 18.4921 13.7108C18.1132 13.3253 18.1132 12.7229 18.4921 12.3373L22.7789 7.9759H0.947368C0.426316 7.9759 0 7.54217 0 7.01205C0 6.48193 0.426316 6.04819 0.947368 6.04819H22.7789L18.4684 1.66265C18.0895 1.27711 18.0895 0.674699 18.4684 0.289157C18.8474 -0.0963855 19.4395 -0.0963855 19.8184 0.289157L25.7158 6.31325C26.0947 6.6988 26.0947 7.3253 25.7158 7.68675Z" fill="#151717"/>
</svg>
